<mxfile host="app.diagrams.net" modified="2022-11-19T03:34:16.924Z" agent="5.0 (Windows)" etag="m6QkSehM5ddl5HpTC11W" version="20.5.3" type="github">
  <diagram id="rOCTJjOEa5umcRyVs5Kd" name="Page-1">
    <mxGraphModel dx="677" dy="367" grid="1" gridSize="10" guides="1" tooltips="1" connect="1" arrows="1" fold="1" page="1" pageScale="1" pageWidth="850" pageHeight="1100" math="0" shadow="0">
      <root>
        <mxCell id="0" />
        <mxCell id="1" parent="0" />
        <mxCell id="fX_LeyY0MBxi8ssNuIGz-1" value="Access Matrix" style="shape=table;childLayout=tableLayout;startSize=40;collapsible=0;recursiveResize=0;expand=0;fontStyle=1;columnLines=1;" vertex="1" parent="1">
          <mxGeometry x="220" y="190" width="120" height="160" as="geometry" />
        </mxCell>
        <mxCell id="fX_LeyY0MBxi8ssNuIGz-2" value="All Users" style="shape=tableRow;horizontal=0;startSize=40;swimlaneHead=0;swimlaneBody=0;top=0;left=0;bottom=0;right=0;dropTarget=0;fillColor=none;collapsible=0;recursiveResize=0;expand=0;fontStyle=1;" vertex="1" parent="fX_LeyY0MBxi8ssNuIGz-1">
          <mxGeometry y="40" width="120" height="120" as="geometry" />
        </mxCell>
        <mxCell id="fX_LeyY0MBxi8ssNuIGz-3" value="All Access" style="swimlane;swimlaneHead=0;swimlaneBody=0;fontStyle=0;connectable=0;fillColor=none;startSize=30;collapsible=0;recursiveResize=0;expand=0;fontStyle=1;" vertex="1" parent="fX_LeyY0MBxi8ssNuIGz-2">
          <mxGeometry x="40" width="80" height="120" as="geometry">
            <mxRectangle width="80" height="120" as="alternateBounds" />
          </mxGeometry>
        </mxCell>
        <mxCell id="fX_LeyY0MBxi8ssNuIGz-15" value="âœ“" style="text;strokeColor=none;fillColor=none;fontSize=50;fontStyle=1;verticalAlign=middle;align=center;html=1;" vertex="1" parent="fX_LeyY0MBxi8ssNuIGz-3">
          <mxGeometry y="30" width="80" height="90" as="geometry" />
        </mxCell>
      </root>
    </mxGraphModel>
  </diagram>
</mxfile>
